<?xml version="1.0" encoding="UTF-8" standalone="no"?>
<!DOCTYPE svg PUBLIC "-//W3C//DTD SVG 1.1//EN" "http://www.w3.org/Graphics/SVG/1.1/DTD/svg11.dtd">
<svg xmlns="http://www.w3.org/2000/svg" version="1.1" viewBox="0.00 0.00 2834.00 738.00">
<path fill="#002148" d="
  M 1346.31 0.00
  L 1402.31 0.00
  C 1405.13 0.20 1408.19 0.53 1410.98 0.49
  Q 1443.99 0.02 1476.99 0.57
  C 1478.96 0.60 1481.57 0.16 1484.00 0.19
  C 1506.74 0.49 1534.08 -0.02 1559.82 0.96
  C 1579.48 1.71 1599.27 1.20 1618.96 1.47
  C 1625.22 1.55 1633.01 0.41 1640.20 0.83
  A 0.56 0.56 0.0 0 1 1640.73 1.39
  C 1640.79 10.47 1644.69 13.33 1649.96 19.79
  Q 1715.36 99.89 1780.75 179.99
  C 1783.62 183.50 1787.67 185.77 1790.57 189.43
  Q 1799.81 201.04 1804.70 206.85
  Q 1805.03 207.23 1805.40 206.89
  Q 1806.70 205.71 1808.17 204.71
  Q 1868.10 163.73 1940.77 157.93
  C 2046.05 149.52 2137.07 189.81 2201.19 272.80
  C 2248.69 334.27 2266.49 410.97 2256.58 487.67
  Q 2246.19 568.15 2194.60 630.36
  C 2151.46 682.38 2095.23 719.47 2028.44 732.68
  Q 2008.01 736.73 1985.19 738.00
  L 1954.49 738.00
  C 1860.61 733.63 1780.82 686.54 1727.71 610.09
  C 1693.26 560.51 1678.00 504.78 1678.39 444.49
  C 1678.87 371.97 1703.85 306.82 1752.59 253.35
  A 0.99 0.98 -43.6 0 0 1752.63 252.07
  L 1604.14 69.82
  Q 1603.56 69.12 1602.65 69.11
  Q 1479.59 68.42 1357.04 67.85
  C 1349.44 67.81 1338.76 69.97 1332.21 69.09
  C 1298.78 64.62 1288.22 24.63 1316.42 5.36
  C 1326.05 -1.22 1335.46 0.60 1346.31 0.00
  Z
  M 2003.18 647.54
  C 2085.24 634.81 2154.33 565.40 2168.23 484.21
  Q 2176.92 433.48 2162.51 387.01
  C 2146.79 336.33 2109.79 293.86 2064.02 268.00
  C 2025.57 246.27 1979.56 241.00 1936.31 247.44
  C 1909.37 251.46 1885.74 260.93 1862.18 274.34
  A 1.52 1.52 0.0 0 0 1861.56 276.32
  Q 1862.70 278.69 1864.32 280.66
  Q 1911.68 338.44 1958.78 396.44
  C 1960.86 399.00 1961.70 401.81 1965.48 401.47
  C 2009.96 397.51 2041.19 446.42 2015.17 484.17
  C 1987.89 523.76 1929.80 509.99 1919.27 464.80
  C 1918.12 459.86 1919.73 454.51 1916.27 450.28
  Q 1863.50 385.66 1810.80 321.16
  A 0.49 0.49 0.0 0 0 1810.02 321.18
  Q 1805.85 326.86 1801.72 332.70
  C 1749.37 406.68 1755.31 510.21 1813.92 578.33
  C 1861.81 634.00 1930.82 658.77 2003.18 647.54
  Z"
/>
<path fill="#002148" d="
  M 617.70 738.00
  L 606.41 738.00
  Q 589.61 735.80 578.18 723.31
  Q 473.99 609.40 369.71 495.56
  C 368.31 494.03 367.23 493.75 365.25 493.75
  Q 309.53 493.75 254.41 493.75
  A 1.16 1.16 0.0 0 0 253.25 494.91
  Q 253.25 595.48 253.24 695.90
  C 253.24 715.42 239.05 730.84 221.39 736.85
  C 219.64 737.44 217.59 737.52 215.69 738.00
  L 204.44 738.00
  C 184.25 736.27 165.51 717.21 165.50 696.69
  Q 165.49 448.72 165.50 200.75
  Q 165.50 196.66 166.08 192.22
  C 168.75 171.76 189.66 156.80 209.31 156.79
  Q 346.24 156.73 483.16 156.76
  C 526.99 156.76 563.16 167.67 596.20 196.53
  C 631.95 227.77 653.52 269.09 654.86 317.06
  C 655.18 328.36 655.01 340.09 653.54 350.95
  C 644.57 417.56 591.85 475.13 525.95 489.29
  Q 508.61 493.02 501.19 493.16
  Q 494.70 493.28 488.21 493.95
  A 0.82 0.82 0.0 0 0 487.72 495.35
  Q 495.42 502.97 502.88 511.12
  Q 572.29 586.97 641.69 662.81
  C 649.43 671.27 654.34 680.13 655.12 691.74
  C 656.64 714.57 640.65 734.40 617.70 738.00
  Z
  M 253.24 246.29
  L 253.24 404.17
  A 1.69 1.69 0.0 0 0 254.93 405.86
  L 486.43 405.86
  A 81.11 79.74 -0.0 0 0 567.54 326.12
  L 567.54 324.34
  A 81.11 79.74 0.0 0 0 486.43 244.60
  L 254.93 244.60
  A 1.69 1.69 0.0 0 0 253.24 246.29
  Z"
/>
<path fill="#002148" d="
  M 1504.69 738.00
  L 1188.44 738.00
  C 1166.24 737.14 1147.98 716.77 1147.98 695.00
  Q 1148.00 592.86 1148.00 490.72
  C 1148.00 489.12 1147.73 487.52 1147.54 485.94
  A 0.71 0.71 0.0 0 0 1146.60 485.36
  L 1109.79 498.35
  A 1.38 1.38 0.0 0 0 1108.87 499.76
  C 1114.64 577.10 1082.67 646.05 1021.68 693.42
  Q 968.76 734.52 901.15 738.00
  L 875.44 738.00
  C 811.81 734.39 757.69 704.70 717.49 656.26
  Q 675.21 605.31 669.15 540.06
  C 663.63 480.61 678.82 423.87 717.06 377.56
  C 757.80 328.21 813.54 297.71 878.07 295.36
  C 932.88 293.36 982.10 307.84 1024.81 342.18
  Q 1060.08 370.54 1082.36 409.29
  C 1085.86 415.37 1089.51 423.38 1093.31 430.40
  Q 1093.91 431.50 1095.09 431.09
  L 1146.39 413.57
  Q 1147.99 413.02 1147.99 411.33
  Q 1148.01 305.74 1148.00 201.25
  C 1148.00 197.42 1148.30 191.54 1149.77 187.39
  C 1155.82 170.35 1170.21 157.98 1189.02 156.96
  Q 1192.41 156.77 1197.60 156.77
  Q 1355.78 156.70 1407.75 156.77
  C 1418.12 156.78 1429.65 157.27 1439.69 158.79
  C 1511.93 169.73 1569.54 231.94 1578.01 304.00
  C 1582.59 342.97 1575.73 381.27 1554.90 414.69
  A 1.23 1.23 0.0 0 0 1555.50 416.49
  C 1614.57 438.83 1658.33 491.31 1664.04 554.95
  C 1669.68 617.74 1644.75 671.57 1594.05 708.29
  C 1568.90 726.51 1536.27 737.92 1504.69 738.00
  Z
  M 1235.74 245.86
  L 1235.74 404.66
  A 1.23 1.23 0.0 0 0 1236.97 405.89
  L 1409.88 405.89
  A 81.28 79.26 0.0 0 0 1491.16 326.63
  L 1491.16 323.89
  A 81.28 79.26 -0.0 0 0 1409.88 244.63
  L 1236.97 244.63
  A 1.23 1.23 0.0 0 0 1235.74 245.86
  Z
  M 792.32 607.79
  C 809.71 626.07 829.55 638.99 854.23 645.53
  C 889.26 654.81 927.80 649.85 958.31 630.30
  C 992.94 608.10 1016.45 572.04 1020.56 530.76
  Q 1020.63 530.07 1020.57 529.94
  Q 1020.08 528.84 1018.95 529.23
  Q 978.53 543.14 937.95 556.85
  Q 936.97 557.18 933.73 557.22
  C 931.51 557.25 930.90 559.58 929.81 560.65
  Q 912.67 577.37 889.68 576.43
  C 855.62 575.03 831.58 542.04 840.92 509.18
  C 851.92 470.44 899.11 458.21 928.31 484.98
  C 929.80 486.34 932.50 486.76 934.60 486.05
  Q 971.72 473.45 1008.44 460.63
  A 0.78 0.77 66.9 0 0 1008.87 459.54
  C 989.08 421.19 954.05 391.85 910.99 384.99
  C 876.15 379.43 840.25 386.96 811.72 408.23
  C 779.20 432.48 758.84 466.89 756.32 507.70
  Q 752.72 566.17 792.32 607.79
  Z
  M 1235.74 495.12
  L 1235.74 648.86
  A 1.48 1.48 0.0 0 0 1237.22 650.34
  L 1497.09 650.34
  A 79.97 78.29 -0.0 0 0 1577.06 572.05
  L 1577.06 571.93
  A 79.97 78.29 0.0 0 0 1497.09 493.64
  L 1237.22 493.64
  A 1.48 1.48 0.0 0 0 1235.74 495.12
  Z"
/>
<path fill="#002148" d="
  M 2490.18 738.00
  L 2480.44 738.00
  C 2461.46 737.16 2445.73 721.95 2441.41 704.47
  Q 2440.00 698.76 2440.00 687.28
  Q 2439.99 466.22 2440.01 245.00
  A 0.30 0.30 0.0 0 0 2439.71 244.70
  Q 2361.27 244.81 2282.74 244.72
  Q 2266.96 244.71 2262.80 243.95
  Q 2248.39 241.30 2238.05 229.69
  C 2220.01 209.43 2225.09 178.49 2247.71 163.43
  C 2257.95 156.61 2267.64 156.78 2282.12 156.77
  Q 2486.89 156.73 2691.66 156.76
  C 2693.81 156.76 2697.41 157.09 2700.31 157.01
  C 2715.36 156.57 2730.42 168.86 2736.77 181.41
  C 2751.13 209.80 2729.79 244.34 2698.19 244.47
  Q 2613.43 244.81 2528.86 244.75
  A 0.51 0.51 0.0 0 0 2528.35 245.26
  Q 2528.63 451.57 2528.46 654.97
  C 2528.45 661.82 2528.07 674.34 2528.40 684.07
  C 2528.62 690.36 2528.29 696.14 2527.55 701.76
  C 2525.37 718.29 2511.59 731.55 2496.54 736.75
  C 2494.58 737.42 2492.32 737.51 2490.18 738.00
  Z"
/>
</svg>
